HIERARCHY
ROOT Hips
{
  OFFSET -33.9132 29.2015 117.021
  CHANNELS 6 Xposition Yposition Zposition Zrotation Xrotation Yrotation
  JOINT LeftUpLeg
  {
    OFFSET 8.64259 1.95398 -2.38835
    CHANNELS 3 Zrotation Xrotation Yrotation
    JOINT LeftLeg
    {
      OFFSET 43.7702 0 0
      CHANNELS 3 Zrotation Xrotation Yrotation
      JOINT LeftFoot
      {
        OFFSET 40.6238 0 0
        CHANNELS 3 Zrotation Xrotation Yrotation
        JOINT LeftToeBase
        {
          OFFSET 12.7242 0 0
          CHANNELS 3 Zrotation Xrotation Yrotation
          End Site
          {
            OFFSET 0 0 0
          }
        }
      }
    }
  }
  JOINT RightUpLeg
  {
    OFFSET -8.2249 1.95398 -2.59336
    CHANNELS 3 Zrotation Xrotation Yrotation
    JOINT RightLeg
    {
      OFFSET 43.5653 0 0
      CHANNELS 3 Zrotation Xrotation Yrotation
      JOINT RightFoot
      {
        OFFSET 40.6238 0 0
        CHANNELS 3 Zrotation Xrotation Yrotation
        JOINT RightToeBase
        {
          OFFSET 12.7242 0 0
          CHANNELS 3 Zrotation Xrotation Yrotation
          End Site
          {
            OFFSET 0 0 0
          }
        }
      }
    }
  }
  JOINT Spine
  {
    OFFSET 0.165834 0.87714 6.61349
    CHANNELS 3 Zrotation Xrotation Yrotation
    JOINT Spine1
    {
      OFFSET 7.38963 1.71661e-005 0
      CHANNELS 3 Zrotation Xrotation Yrotation
      JOINT Spine2
      {
        OFFSET 11.9445 1.14441e-005 0
        CHANNELS 3 Zrotation Xrotation Yrotation
        JOINT Spine3
        {
          OFFSET 14.7254 4.19617e-005 0
          CHANNELS 3 Zrotation Xrotation Yrotation
          JOINT Spine4
          {
            OFFSET 10.9679 0 0
            CHANNELS 3 Zrotation Xrotation Yrotation
            JOINT RightShoulder
            {
              OFFSET 2.46616 -1.6653 3.69651
              CHANNELS 3 Zrotation Xrotation Yrotation
              JOINT RightArm
              {
                OFFSET 13.0012 0 0
                CHANNELS 3 Zrotation Xrotation Yrotation
                JOINT RightForeArm
                {
                  OFFSET 28.7848 1.62311e-005 0
                  CHANNELS 3 Zrotation Xrotation Yrotation
                  JOINT RightHand
                  {
                    OFFSET 26.5688 1.62095e-005 0
                    CHANNELS 3 Zrotation Xrotation Yrotation
                    End Site
                    {
                      OFFSET 0 0 0
                    }
                  }
                }
              }
            }
            JOINT LeftShoulder
            {
              OFFSET 2.38034 -1.29275 -3.7523
              CHANNELS 3 Zrotation Xrotation Yrotation
              JOINT LeftArm
              {
                OFFSET 16.3182 6.07031e-005 0
                CHANNELS 3 Zrotation Xrotation Yrotation
                JOINT LeftForeArm
                {
                  OFFSET 27.0901 0 0
                  CHANNELS 3 Zrotation Xrotation Yrotation
                  JOINT LeftHand
                  {
                    OFFSET 24.5451 1.51738e-005 0
                    CHANNELS 3 Zrotation Xrotation Yrotation
                    End Site
                    {
                      OFFSET 0 0 0
                    }
                  }
                }
              }
            }
            JOINT Neck
            {
              OFFSET 5.0226 -0.0266342 0
              CHANNELS 3 Zrotation Xrotation Yrotation
              JOINT Head
              {
                OFFSET 6.69364 2.86102e-005 0
                CHANNELS 3 Zrotation Xrotation Yrotation
                End Site
                {
                  OFFSET 0 0 0
                }
              }
            }
          }
        }
      }
    }
  }
}
MOTION
Frames:	7
Frame Time:	0.0416667
-50.9133 82.7991 14.1813 -81.7398 7.42829 -105.795 -176.381 9.66956 96.4277 -74.7354 25.2614 5.17314 58.1286 -1.59764 2.33583 33.5147 4.26554 -6.12415 167.088 23.2331 104.528 -47.7953 -0.498634 10.4321 97.0881 -26.5538 -2.00209 10.5969 3.6476 11.6245 0.487433 7.9646 -88.8523 10.9255 1.50143 2.1415 -0.746228 1.5942 2.07337 -23.2697 0.788641 2.49353 -3.25705 0.78864 2.49354 90.9244 -20.5606 -108.85 43.597 -1.90989 41.3575 -45.5636 -12.5058 -79.34 -29.1287 10.7171 -45.7895 -87.9312 -48.4602 81.545 9.52657 -4.41732 -16.6399 36.8248 25.5672 -60.2111 44.7308 -22.5999 -48.4595 18.6575 -3.95693 9.52377 -2.16524 -6.75108 -13.4844 
-55.0379 81.9753 14.5461 -81.7576 12.6286 -105.238 -175.287 17.8754 97.1028 -87.563 12.9742 4.52983 61.5122 0.363292 4.2687 30.7285 2.76384 -4.89864 168.739 19.1399 105.352 -49.3404 -1.98399 8.17442 99.1441 -29.484 -2.80805 9.61335 4.13008 11.34 0.942446 8.17415 -89.2049 10.5115 2.2424 1.37964 -1.15809 2.30094 1.27958 -23.6975 1.72417 1.98978 -3.68482 1.72414 1.98978 91.8342 -20.8086 -106.632 40.8959 -3.01252 35.6381 -43.2699 -8.95641 -82.2151 -31.3374 11.1013 -44.1297 -88.5977 -52.1323 81.2264 8.85093 2.56281 -8.07019 37.0896 24.9684 -59.92 42.5014 -20.8733 -47.3924 18.9662 -5.49676 11.7104 -1.20871 -9.01471 -12.7506 
-59.3198 81.3997 14.815 -79.8698 19.0052 -104.661 -173.606 28.1112 97.6098 -98.0157 5.24586 4.34695 65.8442 3.46443 7.29101 25.1773 0.945908 -5.77662 171.263 15.8742 105.847 -50.0577 -2.43439 6.11411 101.159 -30.1397 -0.364811 14.9267 2.59 10.1969 1.38912 8.32404 -89.5489 10.2192 2.97384 0.642339 -1.44843 2.99922 0.510712 -24.005 2.6432 1.50693 -3.99233 2.64324 1.50695 92.2667 -20.2795 -105.861 36.1413 -1.76571 28.1793 -44.4752 -5.21939 -86.9022 -33.7902 11.1839 -41.5673 -89.2652 -54.6712 80.7316 4.89792 6.39401 3.74388 37.9135 27.4212 -58.4915 42.3605 -20.8052 -47.3024 21.9846 -5.32923 13.0452 -0.871894 -9.57845 -11.0879 
-63.9433 81.0855 14.6287 -77.7618 24.5519 -106.419 -172.247 37.8295 95.7231 -104.652 5.67296 4.18654 70.6698 7.99713 10.9418 20.8107 -0.970776 -5.45279 173.023 12.0942 103.703 -49.257 -2.75636 4.1294 104.265 -31.4944 1.94591 19.4744 0.87171 10.2816 1.69781 8.45274 -89.4961 9.95991 3.61273 0.704306 -1.70611 3.6402 0.544416 -24.2737 3.23389 1.75854 -4.261 3.23389 1.75853 92.4044 -19.2511 -105.994 32.1581 0.637746 20.7466 -41.419 -1.81626 -90.7245 -33.6444 10.8602 -40.7161 -88.7674 -54.9187 81.4845 -1.92087 6.96781 17.1923 41.0371 26.07 -61.2031 43.3367 -20.4612 -45.5224 24.283 -5.06998 13.3254 -0.600381 -9.69819 -11.3061 
-68.9755 81.4774 13.9423 -75.5257 28.2045 -108.817 -171.787 46.7059 93.2947 -105.999 7.08186 4.02237 74.7798 11.3221 11.1763 24.2227 0.328291 -5.26947 173.237 7.91896 100.259 -46.3345 -6.73709 2.91595 103.136 -31.6561 0.74504 21.6773 0.412396 9.12596 1.96444 8.46856 -89.2811 9.91997 4.24163 1.08186 -1.74434 4.28512 0.89381 -24.3211 3.72021 2.30807 -4.30842 3.72022 2.30807 91.8911 -17.9625 -107.839 29.0903 5.62986 16.5916 -37.4041 0.714884 -94.1057 -34.1051 11.5642 -42.3916 -87.1094 -54.2736 83.7436 -7.96404 6.1502 28.6755 43.2999 24.0865 -63.9541 43.2428 -20.7393 -46.1729 25.9874 -5.9092 12.3052 -1.40064 -10.2303 -10.9606 
-74.7152 82.4816 12.389 -73.6519 30.7772 -111.599 -170.682 53.215 89.9228 -102.238 6.98566 3.5649 77.9717 13.2908 9.38633 26.6862 0.821314 -4.08522 172.917 3.36798 95.8551 -42.0043 -10.7679 1.68749 98.6392 -28.7929 -0.60643 25.8569 -0.960977 8.50229 2.2935 8.44691 -88.9954 9.94824 5.02732 1.58307 -1.71366 5.09209 1.35976 -24.3024 4.31894 3.02284 -4.28978 4.31895 3.02285 91.7617 -16.6034 -108.852 27.2851 10.2053 14.9507 -36.5247 2.76689 -97.1796 -35.6154 12.3129 -42.939 -85.4115 -53.3276 86.0617 -12.9793 7.77854 36.9913 42.7823 20.9678 -65.4738 42.558 -21.0217 -47.5229 26.3803 -7.26166 11.605 -1.49347 -11.2884 -11.1846 
-81.0025 84.2197 9.7239 -72.7086 32.8261 -113.916 -169.535 56.1785 87.1122 -94.1187 6.04673 2.64304 81.3817 14.4511 5.42424 27.5078 0.796416 -3.22682 173.087 -1.87713 92.2878 -36.5386 -11.6549 -0.401029 90.8154 -22.5228 -0.824079 31.1566 -3.91135 13.3742 2.75109 8.43678 -88.7531 9.95173 6.04932 1.98044 -1.70621 6.13059 1.7114 -24.3174 5.17419 3.71039 -4.30478 5.1742 3.71039 92.3924 -14.8637 -108.182 26.5645 12.5376 16.6939 -34.754 4.94338 -101.158 -38.3619 13.5851 -43.5838 -84.8621 -51.8053 86.6745 -16.9073 9.05381 42.3855 42.7179 21.1377 -64.9641 43.0563 -21.8898 -48.7237 25.1931 -9.99987 10.651 0.138291 -13.5527 -10 
